<svg width="960" height="640" viewBox="0 0 960 640" fill="none" xmlns="http://www.w3.org/2000/svg">
  <rect width="960" height="640" rx="48" fill="#080808"/>
  <rect x="1" y="1" width="958" height="638" rx="47" stroke="#ef4444" stroke-opacity="0.28" stroke-width="2"/>
  <circle cx="790" cy="92" r="220" fill="#ef4444" fill-opacity="0.12"/>
  <circle cx="190" cy="560" r="220" fill="#ef4444" fill-opacity="0.08"/>
  <rect x="96" y="92" width="768" height="456" rx="28" fill="#111111" stroke="#ef4444" stroke-opacity="0.22"/>
  <rect x="136" y="132" width="688" height="68" rx="18" fill="#171717"/>
  <rect x="164" y="155" width="172" height="22" rx="11" fill="#ef4444"/>
  <rect x="360" y="155" width="110" height="22" rx="11" fill="#343434"/>
  <rect x="492" y="155" width="110" height="22" rx="11" fill="#343434"/>
  <rect x="640" y="150" width="144" height="32" rx="16" fill="#ef4444" fill-opacity="0.14" stroke="#ef4444" stroke-opacity="0.35"/>
  <rect x="136" y="236" width="196" height="148" rx="24" fill="#161616" stroke="#ef4444" stroke-opacity="0.18"/>
  <rect x="382" y="236" width="196" height="148" rx="24" fill="#161616" stroke="#ef4444" stroke-opacity="0.18"/>
  <rect x="628" y="236" width="196" height="148" rx="24" fill="#161616" stroke="#ef4444" stroke-opacity="0.18"/>
  <path d="M176 338H292" stroke="#ef4444" stroke-width="16" stroke-linecap="round"/>
  <path d="M176 300H260" stroke="#ffffff" stroke-opacity="0.8" stroke-width="14" stroke-linecap="round"/>
  <path d="M422 336C446 306 466 328 486 298C504 270 524 290 540 262" stroke="#ef4444" stroke-width="12" stroke-linecap="round" stroke-linejoin="round"/>
  <circle cx="448" cy="306" r="8" fill="#ffffff"/>
  <circle cx="486" cy="298" r="8" fill="#ffffff"/>
  <circle cx="540" cy="262" r="8" fill="#ffffff"/>
  <rect x="672" y="276" width="108" height="16" rx="8" fill="#ef4444" fill-opacity="0.8"/>
  <rect x="672" y="310" width="78" height="16" rx="8" fill="#ffffff" fill-opacity="0.65"/>
  <rect x="136" y="420" width="688" height="72" rx="22" fill="#161616"/>
  <rect x="164" y="446" width="142" height="18" rx="9" fill="#ef4444" fill-opacity="0.75"/>
  <rect x="336" y="446" width="120" height="18" rx="9" fill="#ffffff" fill-opacity="0.22"/>
  <rect x="486" y="446" width="160" height="18" rx="9" fill="#ffffff" fill-opacity="0.18"/>
  <rect x="676" y="442" width="108" height="26" rx="13" fill="#ef4444" fill-opacity="0.18" stroke="#ef4444" stroke-opacity="0.45"/>
</svg>
