<svg width="960" height="640" viewBox="0 0 960 640" fill="none" xmlns="http://www.w3.org/2000/svg">
  <rect width="960" height="640" rx="48" fill="#070707"/>
  <rect x="1" y="1" width="958" height="638" rx="47" stroke="#ef4444" stroke-opacity="0.28" stroke-width="2"/>
  <circle cx="150" cy="120" r="220" fill="#ef4444" fill-opacity="0.12"/>
  <circle cx="780" cy="520" r="260" fill="#ef4444" fill-opacity="0.1"/>
  <rect x="116" y="90" width="728" height="430" rx="30" fill="#111111" stroke="#ef4444" stroke-opacity="0.24"/>
  <rect x="154" y="128" width="650" height="58" rx="18" fill="#181818"/>
  <circle cx="186" cy="157" r="8" fill="#ef4444"/>
  <circle cx="214" cy="157" r="8" fill="#ffffff" fill-opacity="0.45"/>
  <circle cx="242" cy="157" r="8" fill="#ffffff" fill-opacity="0.25"/>
  <rect x="154" y="224" width="296" height="236" rx="24" fill="#161616"/>
  <rect x="494" y="224" width="310" height="104" rx="24" fill="#161616"/>
  <rect x="494" y="356" width="310" height="104" rx="24" fill="#161616"/>
  <path d="M200 402H398" stroke="#ef4444" stroke-width="18" stroke-linecap="round"/>
  <path d="M200 354H348" stroke="#ffffff" stroke-opacity="0.78" stroke-width="16" stroke-linecap="round"/>
  <path d="M200 306H384" stroke="#ffffff" stroke-opacity="0.22" stroke-width="16" stroke-linecap="round"/>
  <rect x="538" y="263" width="102" height="18" rx="9" fill="#ef4444" fill-opacity="0.85"/>
  <rect x="538" y="398" width="154" height="18" rx="9" fill="#ef4444" fill-opacity="0.65"/>
  <rect x="660" y="263" width="96" height="18" rx="9" fill="#ffffff" fill-opacity="0.24"/>
  <rect x="714" y="398" width="52" height="18" rx="9" fill="#ffffff" fill-opacity="0.24"/>
  <rect x="600" y="538" width="228" height="36" rx="18" fill="#ef4444" fill-opacity="0.18" stroke="#ef4444" stroke-opacity="0.4"/>
  <path d="M154 538H424" stroke="#ffffff" stroke-opacity="0.12" stroke-width="2"/>
</svg>
